<svg xmlns:xlink="http://www.w3.org/1999/xlink" width="267" height="255" viewBox="0 0 267 255" fill="none" class="coinGuy" xmlns="http://www.w3.org/2000/svg">
<path d="M166.796 161.074C166.796 161.074 185.73 163.386 198.967 152.813C212.204 142.241 212.963 134.282 213.44 133.408C213.44 133.408 218.374 131.475 218.518 128.068C218.636 125.434 217.089 125.108 217.089 125.108C217.089 125.108 226.317 122.935 230.254 117.214C234.191 111.493 231.854 110.324 231.854 110.324C231.854 110.324 238.2 106.904 235.47 100.663C234.506 98.2361 231.994 97.3437 231.994 97.3437C231.994 97.3437 233.057 94.4596 230.912 91.8795C228.768 89.2995 225.79 89.7341 225.79 89.7341C225.79 89.7341 235.782 72.2518 228.2 67.5792C220.618 62.9066 218.138 72.7669 218.138 72.7669C218.138 72.7669 217.752 64.246 212.427 63.0583C207.101 61.8705 201.77 75.4747 201.359 82.8805C201.359 82.8805 201.457 88.8221 201.174 90.2355C200.891 91.6489 195.185 93.465 192.524 99.5183C189.863 105.572 194.289 116.446 197.409 120.046C200.573 123.6 200.225 122.292 198.993 123.774C197.231 125.812 199.686 130.019 200.253 131.003C200.82 131.988 197.74 137.552 193.684 140.236C189.629 142.92 183.938 139.699 182.821 138.455C181.61 137.033 166.796 161.074 166.796 161.074Z" fill="black"></path>
<path d="M182.424 144.632L175.548 156.141C175.548 156.141 186.914 158.136 195.817 151.842C206.188 144.469 207.644 139.125 207.72 136.628C207.816 133.086 205.011 131.294 202.633 134.073C200.255 136.853 194.303 143.484 190.131 145.082C185.869 146.682 182.424 144.632 182.424 144.632Z" fill="black"></path>
<path d="M214.453 126.669C215.245 127.602 216.534 128.479 214.786 129.202C213.038 129.924 208.74 130.073 206.002 129.141C203.263 128.208 201.977 125.562 204.186 125.191C206.305 124.823 213.425 125.332 214.453 126.669Z" fill="#F2DDDD"></path>
<path d="M223.384 112.16C225.364 113.518 226.326 113.994 226.396 115.036C226.42 116.034 223.026 121.742 214.399 122.539C205.771 123.336 199.756 117.946 197.063 111.386C194.326 104.873 194.343 99.927 198.246 96.5663C202.105 93.252 210.952 94.0828 213.282 96.8398C215.659 99.6411 212.521 102.847 209.255 102.563C205.989 102.278 202.7 101.087 202.003 102.193C201.351 103.343 200.557 104.179 203.929 105.096C207.347 106.057 211.163 108.461 212.317 109.386C213.471 110.311 215.47 110.626 214.709 109.101C213.948 107.577 211.843 106.629 213.079 105.329C214.315 104.029 214.441 103.618 215.408 104.275C216.374 104.932 217.72 108.167 219.49 108.351C221.26 108.535 221.935 108.383 222.048 109.288C222.299 110.325 223.384 112.16 223.384 112.16Z" fill="#F2DDDD"></path>
<path d="M233.448 103.251C233.532 104.837 230.796 109.667 228.03 109.507C225.311 109.391 224.802 107.044 226.97 104.95C229.138 102.856 229.968 101.611 230.9 100.817C231.876 99.9767 233.352 101.121 233.448 103.251Z" fill="#F2DDDD"></path>
<path d="M229.135 97.0916C228.175 98.5667 225.6 102.576 222.997 103.546C220.395 104.516 219.471 101.861 221.637 97.8164C223.804 93.7715 225.45 92.5975 227.269 92.9168C229.088 93.236 230.661 94.6501 229.135 97.0916Z" fill="#F2DDDD"></path>
<path d="M225.841 82.428C224.515 87.5418 220.322 93.9042 218.225 95.1797C216.128 96.4552 214.583 94.3598 214.688 91.1812C214.792 88.0025 216.712 81.241 218.932 77.5124C221.151 73.7837 222.473 72.3 223.535 71.2762C224.643 70.2967 226.654 69.2048 227.232 72.5031C227.855 75.8458 227.04 77.7257 225.841 82.428Z" fill="#F2DDDD"></path>
<path d="M214.904 73.8446C214.689 78.0695 211.716 86.2175 210.722 88.1924C209.728 90.1674 208.803 91.2332 207.483 90.9473C206.164 90.6615 203.915 89.3997 204.026 86.4932C204.093 83.633 205.152 76.847 207.617 72.0235C210.081 67.2 211.304 67.216 212.297 67.1013C213.381 66.9845 215.095 70.4824 214.904 73.8446Z" fill="#F2DDDD"></path>
<path d="M129.91 244.17C102.797 244.17 80.8177 240.781 80.8177 236.601C80.8177 232.42 102.797 229.031 129.91 229.031C157.023 229.031 179.002 232.42 179.002 236.601C179.002 240.781 157.023 244.17 129.91 244.17Z" fill="black"></path>
<path d="M98.9956 184.642C102.516 186.695 107.7 195.932 102.324 203.438C100.468 205.811 97.1395 205.362 97.1395 205.362C97.1395 205.362 98.0996 207.158 96.8195 209.211C96.8195 209.211 107.764 208.185 110.005 213.124C112.245 218.063 110.901 221.784 110.901 221.784C110.901 221.784 113.973 224.927 111.733 230.123C109.493 235.383 101.812 238.847 92.0831 236.538C82.3542 234.293 75.1856 229.61 74.1616 223.965C73.1375 218.32 75.2497 210.943 74.8656 210.109C74.4176 209.275 70.7053 209.596 70.7053 209.596C70.7053 209.596 67.633 203.951 67.057 198.178C66.4809 192.404 69.2972 186.246 76.0817 186.246C76.0817 186.246 85.1705 178.612 90.4829 185.22C90.5469 185.284 94.2592 181.82 98.9956 184.642Z" fill="black"></path>
<path d="M89.7788 216.847C89.7788 217.232 95.7313 211.715 102.324 213.383C108.852 215.051 109.172 219.541 107.124 222.685C105.076 225.828 95.2833 227.881 88.3067 224.16C81.3301 220.439 80.114 218.002 80.178 212.485C80.3061 206.968 81.0101 204.338 79.474 199.784C77.9379 195.229 76.4657 189.969 80.6901 188.109C84.9144 186.248 88.3707 187.146 88.3707 187.146C88.3707 187.146 87.5387 191.316 88.1787 192.663C88.1787 192.663 92.5311 185.735 96.6274 187.66C100.724 189.584 102.324 197.795 99.3156 201.644C96.3074 205.493 89.6508 199.591 89.3308 197.282C89.0108 194.972 87.7947 197.603 88.6908 199.655C89.5868 201.708 90.9949 204.082 94.1952 205.364C97.3955 206.647 95.3473 209.855 94.3872 210.689C93.4912 211.587 89.5228 212.293 89.7788 216.847Z" fill="#B34146"></path>
<path d="M109.813 225.12C109.813 225.12 111.541 228.327 106.101 232.433C102.708 235.063 93.3635 234.87 87.347 232.369C81.3305 229.867 78.7703 226.724 77.8742 224.992C75.378 220.18 76.8502 209.788 76.4021 207.671C75.9541 205.555 75.6981 204.528 75.186 205.362C74.674 206.196 71.9857 207.158 71.9857 207.158C71.9857 207.158 70.3216 201.128 70.3216 197.279C70.3216 193.431 72.1138 190.223 75.6981 188.684C75.6981 188.684 71.8577 194.136 75.378 201.577C77.4902 205.939 78.2583 210.943 78.2583 214.15C78.2583 217.358 78.5783 224.222 91.3154 228.071C100.532 230.829 109.813 225.12 109.813 225.12Z" fill="#751A1E"></path>
<path d="M118.775 173.483C118.775 173.483 123.319 185.799 122.871 195.87C122.423 206.006 116.215 206.134 111.926 204.723C107.638 203.312 95.285 199.719 94.0689 195.87C92.7887 192.021 95.0289 188.557 99.7653 189.391C104.502 190.289 108.598 191.829 109.558 193.433C110.518 195.036 109.75 198.18 110.902 199.014C112.054 199.783 113.142 197.282 112.054 194.074C110.966 190.867 107.126 177.588 101.942 171.879L118.775 173.483Z" fill="black"></path>
<path d="M168.955 187.338C168.955 187.338 167.034 192.085 168.699 195.549C170.299 199.013 174.459 198.5 174.459 198.5C174.459 198.5 175.483 198.693 176.571 201.836C177.595 204.979 181.372 207.673 182.78 208.251C184.188 208.828 184.38 209.79 184.38 209.79C185.98 214.088 188.86 217.745 188.86 217.745C202.301 221.594 211.454 207.609 212.542 205.492C213.63 203.375 211.198 200.489 211.198 200.489L212.862 199.078C225.407 187.146 228.224 172.584 225.215 165.336C222.207 158.087 212.606 158.728 212.606 158.728C212.606 158.728 208.574 154.494 200.701 158.921C192.253 163.668 190.78 178.807 190.396 180.09C190.012 181.373 188.86 182.399 188.86 182.399C188.86 182.399 185.98 182.014 184.252 179.833C182.524 177.716 177.147 179.127 177.147 179.127C171.835 180.924 170.235 183.105 168.955 187.338Z" fill="black"></path>
<path d="M152.568 169.379C152.568 169.379 168.121 185.736 169.017 190.676C169.017 190.676 167.865 186.121 172.729 182.337C177.658 178.552 179.002 179.386 179.002 179.386C179.002 179.386 168.441 165.53 164.345 163.156L152.568 169.379Z" fill="black"></path>
<path d="M208.639 205.363L197.63 201.258C197.63 201.258 192.254 206.903 190.846 209.79C189.502 212.676 190.014 215.499 193.406 215.242C196.862 214.986 206.207 210.367 208.639 205.363Z" fill="#751A1E"></path>
<path d="M208.894 199.207L198.397 195.165C198.397 195.165 205.054 178.487 206.078 174.381C207.294 169.762 210.238 164.823 212.222 164.631C216.703 164.182 214.655 162.514 213.375 162.899C213.375 162.899 204.862 164.374 200.957 179.064C197.053 193.754 195.197 195.101 194.749 195.743C194.301 196.384 196.093 198.757 195.773 199.784C195.389 200.81 188.348 208.444 188.092 209.855C187.836 211.266 187.388 211.138 187.388 211.138C187.388 211.138 185.468 208.059 185.916 206.584C186.364 205.108 189.565 199.399 189.821 199.142C190.077 198.886 196.605 192.022 198.141 184.26C199.677 176.498 204.542 163.155 211.39 161.231C218.239 159.306 220.991 164.759 222.143 168.8C223.807 174.509 222.655 183.169 217.791 189.456C212.158 196.833 208.894 199.207 208.894 199.207Z" fill="#751A1E"></path>
<path d="M208.639 203.249L197.502 199.015C197.502 199.015 196.734 197.604 196.67 197.155C196.606 196.706 198.143 197.476 198.591 197.604C199.039 197.668 207.039 200.234 207.423 200.683C207.807 201.132 208.639 203.249 208.639 203.249Z" fill="#751A1E"></path>
<path d="M182.973 205.362C182.717 205.169 178.108 203.053 177.468 198.626C176.828 194.2 177.404 194.008 176.956 192.853C176.508 191.698 175.996 192.853 175.996 192.853C175.996 192.853 176.06 195.098 174.588 195.676C173.116 196.189 171.708 195.868 171.196 194.777C170.684 193.751 171.452 187.336 175.612 184.385C180.092 181.178 182.269 181.755 182.973 183.102C183.677 184.45 182.717 184.963 182.077 185.989C181.437 187.015 180.413 188.298 180.861 188.683C181.309 189.068 181.181 189.453 182.461 189.068C183.677 188.619 187.325 185.668 188.413 185.155C189.437 184.642 189.757 185.027 190.205 185.476C190.653 185.925 190.333 189.389 190.653 189.389C190.973 189.389 192.189 186.053 192.189 186.053C192.189 186.053 193.598 178.805 195.006 173.159C196.734 165.975 198.654 161.1 203.838 159.817C203.838 159.817 207.551 159.752 205.695 161.805C204.927 162.639 196.606 174.378 195.262 182.653C193.918 190.929 190.397 194.97 187.261 198.562C183.997 202.026 182.973 205.362 182.973 205.362Z" fill="#B34146"></path>
<path d="M183.678 57.4384C200.959 94.9651 194.431 131.337 171.517 154.687C162.812 162.321 154.364 171.43 125.241 172.584C89.0781 174.06 70.5805 158.408 58.0995 135.378C42.8662 107.282 39.7939 66.6116 63.86 39.2203C86.9659 12.9836 127.097 11.829 149.691 23.2473C172.285 34.6657 180.606 53.0763 183.678 57.4384Z" fill="url(&quot;#paint0_radial_10123_70079&quot;)"></path>
<path d="M180.284 59.3626C194.557 90.4745 194.941 127.36 169.915 153.083C167.675 154.943 164.09 158.343 161.082 160.204C151.673 166.618 140.024 168.094 128.887 168.799C105.397 170.403 83.6355 165.528 68.5303 146.091C45.2323 116.39 39.0878 69.1772 65.138 39.2842C85.8117 16.6398 123.575 11.7646 149.945 26.7111C162.298 33.7674 171.899 44.6085 178.875 56.9891C179.196 57.6306 179.836 58.7211 180.284 59.3626ZM187.004 55.4495C186.044 54.0383 184.764 51.7931 183.804 50.3177C172.027 30.8166 151.929 16.9606 129.079 14.972C62.1937 8.94204 27.8228 69.3055 51.8248 128.514C61.6817 152.249 78.6431 170.724 104.949 174.958C120.695 177.459 138.232 176.626 153.081 170.339C160.57 167.26 167.098 161.679 172.987 156.291C199.997 129.028 203.07 89.3198 187.004 55.4495Z" fill="black"></path>
<path d="M175.163 98.1673C175.675 99.6427 178.107 99.771 180.411 100.028C182.78 100.22 183.292 101.375 182.14 102.016C181.051 102.658 177.851 102.016 177.083 103.492C176.379 104.967 169.914 119.015 162.17 126.072C154.425 133.128 144.76 136.977 134.136 130.241C123.511 123.506 116.857 115.487 116.025 114.718C115.193 113.884 113.849 115.551 112.249 114.91C110.649 114.269 110.265 112.986 111.289 111.959C112.313 110.933 116.857 109.971 117.37 106.507C117.882 103.043 117.562 101.567 118.33 100.99C119.034 100.412 120.826 100.797 121.21 103.492C121.594 106.186 121.658 106.25 122.682 106.699C123.706 107.148 138.808 113.563 148.793 111.061C158.778 108.559 168.058 101.439 169.338 100.028C170.683 98.6163 170.555 97.5258 170.491 96.756C170.427 95.9221 170.299 94.1901 171.707 93.8052C173.179 93.5486 174.075 94.8316 175.163 98.1673Z" fill="black"></path>
<path d="M173.242 66.9916C175.098 73.7913 175.994 88.6096 167.097 92.2019C158.969 95.4734 152.248 84.4399 150.328 73.8555C148.728 64.8106 153.08 54.9317 158.585 53.2639C164.089 51.596 171.002 58.7165 173.242 66.9916Z" fill="black"></path>
<path d="M138.104 71.2933C139.96 78.093 140.856 92.9113 131.96 96.5036C123.831 99.7751 117.11 88.7416 115.19 78.1572C113.59 69.1123 117.942 59.2334 123.447 57.5656C128.951 56.026 135.864 63.0182 138.104 71.2933Z" fill="black"></path>
<path d="M168.252 49.9342C168.252 49.9342 168.06 47.9456 166.524 45.3155C164.987 42.6854 157.563 38.0668 151.994 40.2478C146.426 42.4289 149.37 46.0212 151.354 46.0212C153.274 46.0212 154.747 42.3647 161.275 44.6741C167.42 46.8551 165.948 51.2172 168.252 49.9342Z" fill="black"></path>
<path d="M126.2 47.1064C126.456 46.2083 124.28 43.3858 120.184 44.6688C116.088 45.9517 109.047 48.7101 107.127 58.6531C106.679 60.77 108.023 61.1549 108.599 60.8983C110.199 60.1285 110.327 57.4984 111.479 54.9325C113.079 51.2119 117.752 49.7365 122.36 50.378C126.904 51.0194 126.2 47.1064 126.2 47.1064Z" fill="black"></path>
<path d="M153.399 119.405C155.704 118.635 158.52 119.662 158.84 122.356C159.096 125.05 158.328 127.616 150.711 129.989C143.543 132.17 139.702 129.605 139.318 127.295C138.934 124.986 140.79 122.612 145.335 122.997C149.815 123.382 150.583 125.627 152.311 125.756C153.783 125.82 153.975 124.024 152.951 122.997C151.799 121.971 151.991 119.854 153.399 119.405Z" fill="#FF2C2C"></path>
<path d="M140.665 60.4499C139.832 56.0879 136.184 52.1107 131.704 51.5333C131.384 51.4692 131 51.7258 131 52.0465C130.936 52.3673 131.128 52.6238 131.384 52.7521C135.032 54.2917 137.528 57.435 139.448 60.8348C139.768 61.4763 140.793 61.1556 140.665 60.4499Z" fill="black"></path>
<path d="M139.703 53.7152C139.703 53.7152 138.103 51.4059 135.799 50.5078" stroke="#000000" stroke-width="0.640054px" stroke-miterlimit="10" stroke-linecap="round" stroke-linejoin="round" fill="none"></path>
<path d="M109.428 69.8807C108.019 76.7445 107.635 84.314 110.836 90.793C112.372 93.6797 114.036 96.8229 116.98 98.4266C117.492 98.6832 118.004 98.0417 117.748 97.5927L117.556 97.272C117.556 97.2078 117.428 97.1437 117.3 97.0154C115.444 94.8985 114.228 92.2684 112.948 89.7025C111.86 87.5856 111.22 85.2762 110.9 82.9028C110.324 78.669 110.324 74.3069 110.644 70.0731C110.772 69.3033 109.62 69.1109 109.428 69.8807Z" fill="black"></path>
<path d="M106.166 83.9297C106.166 83.9297 106.614 92.3331 112.759 97.7216" stroke="#000000" stroke-width="0.640054px" stroke-miterlimit="10" stroke-linecap="round" stroke-linejoin="round" fill="none"></path>
<path d="M152.122 165.143C126.264 171.622 106.102 162.641 90.5488 141.6C85.8764 135.314 81.716 128.45 78.3877 121.394C71.9872 107.089 70.6431 90.795 72.3712 75.2711C74.0354 61.6075 77.6837 47.4308 86.1324 36.269C87.3485 34.6653 88.7566 33.254 90.2927 31.9069C90.4208 31.7786 90.4207 31.5861 90.3567 31.4578C90.2287 31.3295 90.1007 31.3296 89.9727 31.3937C86.3884 33.5106 83.4442 36.5897 80.8839 39.8613C68.5949 56.7323 64.2426 78.9275 65.8427 99.5833C66.6107 108.051 68.5309 116.454 72.0512 124.28C73.7794 128.193 75.8915 131.786 78.0677 135.442C87.8605 151.479 102.582 166.49 121.783 169.89C132.152 171.75 142.841 169.954 152.442 165.848C152.634 165.784 152.698 165.592 152.634 165.399C152.378 165.207 152.25 165.079 152.122 165.143Z" fill="black"></path>
<path d="M155.45 25.2939C141.817 17.5961 124.728 16.1849 109.623 19.5206L106.614 20.1621C106.422 20.2262 106.358 20.3545 106.358 20.5469C106.422 20.7394 106.55 20.8035 106.742 20.8035C108.599 20.547 111.031 20.0338 112.823 19.9055C123.896 18.6867 135.289 19.9696 145.594 24.1393C148.346 25.2939 151.098 26.5769 153.53 28.2447C155.45 29.5277 157.435 26.641 155.45 25.2939Z" fill="black"></path>
<path d="M95.7964 167.962C81.1392 163.792 61.8096 142.367 57.4572 131.269C57.2012 130.563 60.0814 134.476 65.5859 141.019C66.866 142.559 68.6581 144.034 70.5143 145.51C71.1543 146.023 72.0504 145.189 71.5384 144.548C69.2982 141.725 65.7779 136.337 63.2817 131.846C62.8337 131.076 63.9217 130.371 64.4338 131.076C67.25 134.669 71.8584 140.827 76.4028 145.381C76.9788 145.959 78.0029 145.189 77.4909 144.483C66.61 129.922 64.1138 122.288 66.674 126.522C69.2342 130.756 73.6506 138.71 81.2672 146.215C83.5074 148.396 83.1874 145.061 82.8673 144.355C82.4833 143.65 79.6031 138.389 79.219 137.427C78.899 136.657 79.8591 136.08 80.3711 136.657C81.9073 138.518 86.0036 146.215 88.8198 148.653C90.484 150.064 91.5081 150.706 92.0841 150.706C95.3484 150.77 98.6126 151.604 100.789 154.106C104.565 158.275 110.134 162.381 120.758 165.011C129.015 167.064 142.072 169.501 144.44 170.079C145.145 170.271 145.145 171.233 144.504 171.426C139.704 172.901 125.559 176.365 95.7964 167.962Z" fill="black"></path>
<path d="M169.53 124.082C169.53 124.082 167.673 127.418 165.881 129.278" stroke="#000000" stroke-width="0.640054px" stroke-miterlimit="10" fill="none"></path>
<path d="M162.939 132.426C162.939 132.426 157.242 138.199 148.025 138.199C141.049 138.199 136.569 135.954 136.569 135.954" stroke="#000000" stroke-width="0.640054px" stroke-miterlimit="10" fill="none"></path>
<path d="M68.4021 57.4336C68.4021 57.4336 64.8178 65.7087 64.3058 77.2554" stroke="#000000" stroke-width="0.640054px" stroke-miterlimit="10" stroke-linecap="round" stroke-linejoin="round" fill="none"></path>
<path d="M65.9033 57.4336C65.9033 57.4336 62.319 65.7087 61.807 77.2554" stroke="#000000" stroke-width="0.640054px" stroke-miterlimit="10" stroke-linecap="round" stroke-linejoin="round" fill="none"></path>
<path d="M63.0908 57.4336C63.0908 57.4336 59.5065 65.7087 58.9945 77.2554" stroke="#000000" stroke-width="0.640054px" stroke-miterlimit="10" stroke-linecap="round" stroke-linejoin="round" fill="none"></path>
<path d="M60.1475 57.4336C60.1475 57.4336 56.5632 65.7087 56.0511 77.2554" stroke="#000000" stroke-width="0.640054px" stroke-miterlimit="10" stroke-linecap="round" stroke-linejoin="round" fill="none"></path>
<path d="M56.9443 57.4336C56.9443 57.4336 53.36 65.7087 52.848 77.2554" stroke="#000000" stroke-width="0.640054px" stroke-miterlimit="10" stroke-linecap="round" stroke-linejoin="round" fill="none"></path>
<path d="M151.032 154.043C151.032 154.043 125.302 163.024 104.436 142.817C83.5703 122.611 84.9144 91.2422 84.9144 91.2422C84.9144 91.2422 86.1306 114.143 98.1636 129.218C110.197 144.293 96.8195 121.199 95.9874 118.313C95.9874 118.313 100.404 127.614 109.3 134.863C109.364 134.799 103.86 124.984 100.916 117.671C100.916 117.671 103.924 124.984 112.949 132.425C121.91 139.867 130.102 141.47 131.638 141.791C131.638 141.791 124.79 141.47 119.925 139.61C115.061 137.75 110.645 136.916 114.805 140.636C118.965 144.357 123.19 146.73 132.662 148.976C132.662 148.976 123.446 151.028 109.557 143.202C109.492 143.202 118.645 157.828 151.032 154.043Z" fill="black"></path>
<path d="M167.421 90.6025C167.421 90.6025 157.501 87.0102 155.324 72.3203C153.276 58.4001 158.909 54.2305 158.909 54.2305C158.909 54.2305 151.356 58.4001 151.996 71.2298C152.444 80.1464 156.284 86.048 159.677 89.1913C162.493 91.8213 165.373 92.3345 167.421 90.6025Z" fill="#F2DDDD"></path>
<path d="M132.024 94.9619C132.024 94.9619 122.103 91.3696 119.927 76.6797C117.879 62.7595 123.511 58.5898 123.511 58.5898C123.511 58.5898 115.958 62.7595 116.598 75.5891C117.046 84.5057 120.887 90.4074 124.279 93.5506C127.095 96.1166 129.976 96.6298 132.024 94.9619Z" fill="#F2DDDD"></path>
<path d="M170.812 70.7159C170.62 70.5876 163.259 59.4258 163.259 59.4258L160.251 72.063L167.036 75.976L170.812 70.7159Z" fill="#F2DDDD"></path>
<path d="M171.067 72.8984L169.019 83.9319L160.635 74.5021L167.355 77.9662L171.067 72.8984Z" fill="#F2DDDD"></path>
<path d="M160.506 72.3852L166.266 68.6004L165.498 68.6646L170.683 71.038L171.003 70.4607L166.202 67.3816L165.818 67.125L165.434 67.4457L160.122 71.872L160.506 72.3852Z" fill="#F2DDDD"></path>
<path d="M135.674 74.4346C135.482 74.3063 128.122 63.1445 128.122 63.1445L125.113 75.7817L131.898 79.6948L135.674 74.4346Z" fill="#F2DDDD"></path>
<path d="M135.865 76.6172L133.817 87.5865L125.496 78.1567L132.217 81.6207L135.865 76.6172Z" fill="#F2DDDD"></path>
<path d="M125.304 76.0398L131.128 72.255L130.36 72.3192L135.545 74.6926L135.801 74.1153L131 71.0362L130.616 70.8438L130.296 71.1003L124.984 75.5266L125.304 76.0398Z" fill="#F2DDDD"></path>
<path d="M86.5955 143.015C89.6157 146.412 87.2921 151.61 83.0595 152.594C78.5962 153.585 68.4393 148.076 59.8746 157.613C51.3643 167.184 49.6061 173.415 49.0435 176.992C48.4471 180.624 48.5751 180.175 51.9117 182.334C53.7262 183.542 53.9572 186.935 53.1614 189.309C57.9208 190.391 65.0566 195.299 65.9934 201.927C67.0547 209.692 66.2968 217.227 58.5684 217.767C54.2789 217.507 53.9477 214.882 53.9477 214.882C53.9477 214.882 52.7521 217.536 49.2262 218.961C41.5101 222.153 38.6116 215.282 38.6116 215.282C38.6116 215.282 32.7233 219.539 29.204 214.395C29.204 214.395 16.8635 212.887 19.0098 197.531C20.7917 186.404 25.7031 185.541 25.7031 185.541C25.7031 185.541 24.8669 181.544 26.6412 179.78C28.4493 177.963 30.9581 176.96 33.0358 177.501C33.0358 177.501 36.9094 160.579 47.7436 149.21C58.4559 137.916 74.76 129.886 86.5955 143.015Z" fill="black"></path>
<path d="M51.1315 192.207C55.3293 191.278 61.4827 194.363 63.2513 199.773C64.8495 204.849 65.2761 207.684 62.273 212.154C59.2699 216.624 55.4617 212.434 55.5726 210.313C55.6835 208.192 58.0455 205.361 58.9258 204.551C59.8061 203.741 58.7372 201.94 56.6371 203.5C54.0022 205.556 48.3641 212.083 51.7492 211.854C55.0462 211.646 51.8257 215.981 47.9938 216.686C44.9215 217.26 41.4782 215.64 40.4744 212.52C39.7435 210.176 37.797 213.795 33.9566 213.664C30.1161 213.532 29.3139 209.482 29.1628 208.632C29.0661 207.816 27.1124 211.204 25.639 210.662C24.1656 210.12 19.0363 206.843 20.905 198.492C22.7737 190.141 25.2611 185.651 30.1803 189.024C35.2964 192.444 45.8419 193.437 51.1315 192.207Z" fill="#F2DDDD"></path>
<path d="M49.3176 183.968C50.7644 184.795 51.3429 185.685 50.6269 187.202C49.8566 188.685 43.7633 191.452 36.7021 188.857C29.641 186.262 28.5648 184.231 28.3727 183.205C28.1806 182.178 28.9291 180.002 30.7623 180.693C32.5955 181.384 35.5195 184.569 40.4731 185.093C45.4268 185.617 47.3817 182.835 49.3176 183.968Z" fill="#F2DDDD"></path>
<path d="M85.7882 145.301C86.1301 146.572 85.1147 151 79.1014 150.721C73.0882 150.443 65.2083 146.733 56.5687 156.148C47.9834 165.597 45.863 173.868 45.2846 176.378C44.7062 178.888 43.1168 181.446 40.5498 180.599C37.9828 179.753 37.0754 177.449 38.0438 173.218C39.0665 169.021 42.222 159.205 50.7953 150.504C59.4229 141.837 69.5161 136.276 77.9662 140.04C83.2838 141.924 85.2819 143.322 85.7882 145.301Z" fill="black"></path>
<path d="M40.121 195.607C40.4968 196.824 38.9861 201.32 39.3824 202.625C39.7788 203.931 38.1552 203.144 37.818 200.893C37.4808 198.643 39.1097 192.256 40.121 195.607Z" fill="black"></path>
<path d="M34.1432 194.674C34.519 195.89 33.0083 200.387 33.4047 201.692C33.801 202.997 32.1775 202.21 31.8402 199.96C31.503 197.71 33.1319 191.323 34.1432 194.674Z" fill="black"></path>
<path d="M28.8718 193.201C29.1051 194.404 26.9492 198.725 27.1692 200.071C27.3892 201.417 25.867 200.467 25.8825 198.134C25.8098 195.822 28.2469 189.713 28.8718 193.201Z" fill="black"></path>
<defs>
<radialGradient id="paint0_radial_10123_70079" cx="0" cy="0" r="1" gradientUnits="userSpaceOnUse" gradientTransform="translate(182.192 70.977) rotate(154.998) scale(122.179 115.513)">
<stop stop-color="#FBBA12"></stop>
<stop offset="1" stop-color="#FF9F10"></stop>
</radialGradient>
<radialGradient id="paint0_radial_10123_70079" cx="0" cy="0" r="1" gradientUnits="userSpaceOnUse" gradientTransform="translate(182.192 70.977) rotate(154.998) scale(122.179 115.513)">
<stop stop-color="#FBBA12"></stop>
<stop offset="1" stop-color="#FF9F10"></stop>
</radialGradient></defs>
</svg>